<?xml version='1.0' encoding='utf-8'?>
<svg xmlns="http://www.w3.org/2000/svg" viewBox="0 0 744.09 496.06"> <path d="m0 0.03537h744.09v165.33h-744.09z" fill="#0039ad" fill-rule="evenodd"/> <path d="m0 165.37h744.09v165.37h-744.09z" fill="#fff" fill-rule="evenodd"/> <path d="m0 330.73h744.09v165.33h-744.09z" fill="#d61810" fill-rule="evenodd"/> <path transform="matrix(1.1752 0 0 1.1752 -8.8028 25.044)" d="m234.63 90.261s58.428 10.405 90.042 10.405c31.616 0 88.842-10.004 88.842-10.004l-4.802 162.88c0.4 2.001-0.13 10.695-9.604 22.011-14.407 16.808-58.828 9.204-66.031 15.607-6.804 7.204-8.805 10.405-8.805 10.405s-3.201-6.804-12.406-11.606c-9.204-4.802-46.605 0.225-59.628-14.006-7.013-7.937-10.6-20.21-10.655-21.51l-6.953-164.18z" fill="#ffd700" fill-rule="evenodd" stroke="#000" stroke-width="5"/> <path transform="matrix(1.1752 0 0 1.1752 -8.8028 25.044)" d="m324.67 100.67c31.616 0 88.842-10.004 88.842-10.004l-4.802 162.88c0.4 2.001-0.13 10.695-9.604 22.011-14.407 16.808-58.828 9.204-66.031 15.607-6.804 7.204-8.805 10.405-8.805 10.405l0.4-200.89z" fill="#d61810" fill-rule="evenodd" stroke="#000" stroke-width="1.875"/> <path transform="matrix(1.1752 0 0 1.1752 -8.8028 25.044)" d="m366.29 151.89 9.205-40.419s3.601 41.62 3.601 40.819 7.204-39.618 7.204-39.618l19.209-8.804 1.2 21.21-22.01 30.014h19.609l-13.606 17.208 14.006 10.805-16.007 11.205 14.006 25.211-23.211-8.403 21.21 45.621-30.014-30.014 7.204 42.02s-13.207 12.405-13.607 12.005-14.006-13.606-14.006-13.606l10.405-40.819s-31.616 33.215-31.616 32.815 21.211-47.622 21.211-47.622l-20.81 7.603 16.007-25.212-16.408-10.404 16.408-11.606-16.808-16.407 18.409 0.8-18.009-26.812v-21.611l17.209 6.804s8.004 38.818 8.004 38.418 3.201-42.42 3.201-42.42l8.804 41.219z" fill="#fff" fill-rule="evenodd" stroke="#000" stroke-width="1.25"/> <path transform="matrix(1.1752 0 0 1.1752 263.17 128.92)" d="m73.4216,144.639 8.7611-9.999c0,0 1.2379-1.524 1.4284-2.952s-3.0473-3.714-3.2378-5.047c.0829-.669.1759-1.358.6817-2.537 .9353-.086 1.5547.06 1.9847.156 1.5237,1.619.9523,3.047.9523,3.428s1.8094-.571 1.8094-.571 1.0475-2.952 1.9998-3.143 1.5236.667 1.7141,1.524-.8571,2.381-3.2378,3.904 3.5235-1.428 4.3805,1.619c.381,2.096-3.9044,2.667-3.9044,2.667s.4762,1.714 1.8094,1.809 .4565.838.7422,1.6-2.4563,2.019-4.3609-.362-6.3804,15.999-6.3804,15.999 .2857,1.428-1.0475,1.047-4.0948-8.856-4.0948-9.142z" fill="#0039ad" fill-rule="evenodd" stroke="#000" stroke-width=".625"/> <path transform="matrix(1.1752 0 0 1.1752 263.17 128.92)" d="m75.3442,104.991c0,2.018 1.6379,7.862-7.6982,8.517-6.1339-.178-6.3525-2.77-9.6638-2.948-5.2413.655-4.5861,5.733-4.5861,5.733s2.5739,5.853-2.6207,10.155c-4.4489,3.118-8.3534,3.767-12.2844,2.457s-19.4912-3.276-18.836,2.62 9.1723,7.862 9.1723,7.862 10.4827,1.802 13.1034,1.966 8.5171-1.474 8.5171-1.474-1.3103-1.638-2.1293-2.948c-.4095-.656 2.3061-.182 3.8091-.572s1.1267-1.739 1.9618-2.041c-2.8324-.633-4.9869-.728-5.1829-3.298 2.3044.763 2.8605.435 3.5157.108s2.0182-3.765 3.3285-4.911 .1227-4.165.7369-4.648c.6181-.35 1.4995.966 2.2492,1.449 0,0 4.9782.809 3.8316,3.102s1.8017-3.112 5.0776-2.784 7.3706,2.457 7.3706,2.457 .6551,2.293-1.1466,2.293 .6552,3.603-.1637,3.931-9.3362.327-7.8621,2.62 5.569,3.276 6.7155,3.113 1.4741,2.62.1638,2.948-3.6034.163-2.6207.982 3.1121,3.604 3.6035,3.276 2.6206,1.147 2.9482,3.44-.3276,4.259-.3276,4.259-2.4569-2.457-2.6206-3.276 .1637,6.06 1.3103,6.224 .8189,2.948 2.1293,2.62-2.9483.656-3.2759,0-2.4568-.982-2.4568-2.129-1.3104,2.948-1.3104,2.948 14.2499,10.811 14.2499,10.647 1.9881-4.845 4.6087-1.569c.0426.659-1.1691,3.862-1.1691,3.862s2.2931,1.965 1.6379,2.621-3.4396.819-4.0947.327 1.6379,2.13.4913,3.604-1.9655-.328-2.7844-.164-2.7845-.655-2.6207-1.638 1.8017-2.293 1.4741-2.621-4.4223.819-4.5861,1.966-2.4569-3.931-2.1293-4.095 2.1293-.819 2.4568-.491-13.7584-6.388-13.9222-6.552-2.7845-.328-3.4397-1.474-.9827-3.604-1.6379-4.586-1.3744-3.876-1.1465-3.112l1.1465,2.62c0,0-2.9482-.164-4.5861-.982s-8.3534-5.078-8.8448-4.75-4.0948-2.621-4.0948-2.621l.819-1.802c.0439-.614-4.0948,5.733-4.75,6.06s-8.3534,2.621-10.4827,4.587-4.5861,3.603-3.4396,5.241c2.4626-2.091 4.9138.491 5.0776,1.638s-2.7845,3.767-3.7673,2.621 1.8018,1.965 1.3104,2.62-3.1121,1.802-3.2759,1.638-1.3103-4.422-1.3103-4.422-1.8017,3.931-1.1465,4.914-3.4397.655-3.4397-1.311 1.4742-3.603 1.4742-3.603-1.3104-2.293-2.2931-2.13-.1638-3.767 2.6207-3.439 .6551-7.371 2.9482-7.862 2.1293,1.146 3.2758,0 7.8914-10.801 7.8914-10.801-8.5465-.337-8.7103-.337 .4914-1.146.4914-1.146-5.2414-.164-5.0776.818 7.5344,4.587-.3276,6.716c.6042-1.951-.1638-3.276-.3276-3.276s-3.4396-2.129-3.2758-4.75 6.3879-2.293 6.3879-2.293-7.043-5.078-6.8793-9.009 8.1896-7.37 8.1896-7.37 2.6207-1.638 2.7845-3.276-1.8017-7.534 6.8792-6.552c-2.0224,1.509-2.293,3.112-2.293,3.112s-.3276,6.552-2.7845,7.207 5.4051.328 5.4051.328 1.6379.491 2.7845-1.147-.9828-7.534 6.7154-7.862c-1.6015,2.305-1.4741,4.095-1.4741,4.095s1.4741,4.914-3.4396,6.552 12.1206,2.457 12.6119-5.405-7.204-8.19-7.862-8.19c-.8773.088-5.414,1.079-7.3706-.328-1.4741-1.801-5.0832-7.718-6.3879-11.465 5.6263,1.605 4.2586,3.767 6.7155,4.914s15.2326.491 15.8878,6.06c1.7519-5.792 7.6982-6.388 7.6982-6.388 2.3249.088 6.3118,1.952 10.4066,2.77 3.9194.161 4.9959-1.904 5.9726-2.77z" fill="#0039ad" fill-rule="evenodd" stroke="#000" stroke-width=".625"/> <path transform="matrix(1.1752 0 0 1.1752 263.17 128.92)" d="m67.708 135.78c0.0953 0 0.1905-1.238 5.3329-1.619s3.9996-3.714 4.4757-4.952 2.1903 2.19 2.0951 3.619-3.333 3.904-6.7613 4.095-5.2376-1.238-5.1424-1.143z" fill="#d61810" fill-rule="evenodd"/> <path transform="matrix(1.1752 0 0 1.1752 263.17 128.92)" d="m59.709 126.16s-0.3809 3.333-0.0952 3.523" fill="none" stroke="#000" stroke-width=".625"/> <path transform="matrix(1.1752 0 0 1.1752 263.17 128.92)" d="m58.852 123.21s-3.0473 3.618-2.3807 5.428 3.0473 4.761 3.1426 5.523 1.0475-1.809 1.0475-1.809" fill="none" stroke="#000" stroke-width=".625"/> <path transform="matrix(1.1752 0 0 1.1752 263.17 128.92)" d="m60.756 136.16s0.0952 1.619-1.3332 1.523 2.476 0.096 2.2855 1.619-2.5712 1.048-2.5712 1.048" fill="none" stroke="#000" stroke-width=".625"/> <path transform="matrix(1.1752 0 0 1.1752 263.17 128.92)" d="m62.47 142.16c-0.0952 0-0.3809 1.524 1.238 1.429" fill="none" stroke="#000" stroke-width=".625"/> <path transform="matrix(1.1752 0 0 1.1752 263.17 128.92)" d="m54.28 138.54s-2.095 1.715-3.333 1.429" fill="none" stroke="#000" stroke-width=".625"/> <path transform="matrix(1.1752 0 0 1.1752 263.17 128.92)" d="m52.9473,139.306c0,0-.9522,6.381-2.3807,7.238s3.5235-.096 4.571-2.476 .5714,4.761-1.9998,7.332c2.8569-1.333 4.571.286 5.7137-4.952-.0952,8.952 4.2853,11.618 4.2853,11.618l.5714-2.952" fill="none" stroke="#000" stroke-linejoin="round" stroke-width=".625"/> <path transform="matrix(1.1752 0 0 1.1752 263.17 128.92)" d="m62.2798,148.448c-.0952.095.7618,5.714 3.5235,5.428 2.7616-.285-1.238-7.142-1.238-7.142" fill="none" stroke="#000" stroke-width=".625"/> <path transform="matrix(1.1752 0 0 1.1752 263.17 128.92)" d="m67.803 147.12s0 4.476 1.3332 4.571-0.4762-4.381-0.4762-4.381" fill="none" stroke="#000" stroke-width=".625"/> <path transform="matrix(1.1752 0 0 1.1752 263.17 128.92)" d="m70.565 147.3s1.7141 5.143 0.9523 8.381" fill="none" stroke="#000" stroke-width=".625"/> <path transform="matrix(1.1752 0 0 1.1752 263.17 128.92)" d="m67.2317,155.59c.3809.572 1.9998,3.524 2.9521,3.905" fill="none" stroke="#000" stroke-width=".625"/> <path transform="matrix(1.1752 0 0 1.1752 263.17 128.92)" d="m70.9456,127.498c-.1904-.095-4.4757-2.571-5.8089.762" fill="none" stroke="#000" stroke-width="1.25"/> <path transform="matrix(1.1752 0 0 1.1752 263.17 128.92)" d="m67.422 127.31-1.8094 1.048" fill="none" stroke="#000" stroke-width="1.25"/> <path transform="matrix(1.1752 0 0 1.1752 263.17 128.92)" d="m63.422 136.74s-0.857 4.762 6.0947 4.285" fill="none" stroke="#000" stroke-width=".625"/> <path transform="matrix(1.1752 0 0 1.1752 263.17 128.92)" d="m37.2346,154.543c0,0 1.4284,1.524.9522,3.619s-2.4759,4.475-3.6187,5.237 7.7136,5.619 9.9991,5.143-3.4283.38-2.7617,1.809 1.6189,2.666 2.9521,2.285 1.8094-2.38 1.8094-2.38-1.3332,3.904-.1905,5.142 4.6663,0 4.6663,0-.8571-2.952-1.7142-3.428 3.5235,1.619 3.714,4.095 1.4189-1.251 3.2378-1.714c-.0953-.191-1.4285-2.476-1.9046-2.381-.4762.095 1.238-1.81 2.1902-1.619s.1905-2.952.2857-2.952-4.7614-.191-5.0471,1.523c-.2857,1.715-7.1422-3.809-7.6183-5.618s2.9521-2.762 2.6664-5.428-1.1428-4.381-1.9999-5.048l-4.19-2.951-3.4282,4.666z" fill="#0039ad" fill-rule="evenodd" stroke="#000" stroke-width=".625"/> <path transform="matrix(1.1752 0 0 1.1752 263.17 128.92)" d="m38.0916,153.781c.2857-.095 7.5231-.571 7.5231-.571" fill="none" stroke="#000" stroke-width=".625"/> <path transform="matrix(1.1752 0 0 1.1752 263.17 128.92)" d="m57.6307,168.044c.4687-.117 1.8874.021 1.5065,2.593-.8497-1.101-.989-.779-1.4187-.74l-.0878-1.853z" fill="#f00" fill-rule="evenodd" stroke="#000" stroke-width=".625"/> <path transform="matrix(1.1752 0 0 1.1752 263.17 128.92)" d="m56.1946,175.355c.453.168 1.5465,1.083-.219,2.991-.0804-1.388-.5333-1.357-.9102-1.567-.1314-.826.2841-1.613 1.1292-1.424z" fill="#f00" fill-rule="evenodd" stroke="#000" stroke-width=".625"/> <path transform="matrix(1.1752 0 0 1.1752 263.17 128.92)" d="m49.0915,176.47c.2059.437.6984,2.325-1.8986,2.452 .3677-1.165.2199-1.591.0981-2.005l1.8005-.447z" fill="#f00" fill-rule="evenodd" stroke="#000" stroke-width=".625"/> <path transform="matrix(1.1752 0 0 1.1752 263.17 128.92)" d="m41.2174,170.947c-.4597.148-1.5911,1.015.0916,2.997 .1395-1.384.4279-1.184.8133-1.378l-.9049-1.619z" fill="#f00" fill-rule="evenodd" stroke="#000" stroke-width=".625"/> <path transform="matrix(1.1752 0 0 1.1752 263.17 128.92)" d="m74.9734,173.396c-.4687-.117-1.8874.06-1.5065,2.632 .8497-1.101 1.8093-.818 2.239-.779l-.7325-1.853z" fill="#f00" fill-rule="evenodd" stroke="#000" stroke-width=".625"/> <path transform="matrix(1.1752 0 0 1.1752 263.17 128.92)" d="m84.0515,179.286c-.0598.48-.7774,1.988-3.0396.706 1.0205-.435 1.1606-.876 1.2794-1.291l1.7602.585z" fill="#f00" fill-rule="evenodd" stroke="#000" stroke-width=".625"/> <path transform="matrix(1.1752 0 0 1.1752 263.17 128.92)" d="m90.0176,174.818c.3329.351.9134,1.652-1.5114,2.591 .538-1.282.1891-1.244-.0568-1.599l1.5682-.992z" fill="#f00" fill-rule="evenodd" stroke="#000" stroke-width=".625"/> <path transform="matrix(1.1752 0 0 1.1752 263.17 128.92)" d="m80.8837,123.369c-.117-.819.021-3.295 2.593-2.631-1.101,1.484-.779,1.727-.74,2.477l-1.853.154z" fill="#f00" fill-rule="evenodd" stroke="#000" stroke-width=".82584"/> <path transform="matrix(1.1752 0 0 1.1752 263.17 128.92)" d="m89.4849,168.435c.483.004 1.8224.492.8114,2.887-.548-1.278-.7631-1.001-1.189-1.07l.3776-1.817z" fill="#f00" fill-rule="evenodd" stroke="#000" stroke-width=".625"/> <path transform="matrix(1.1752 0 0 1.1752 263.17 128.92)" d="m29.3301,165.869c.4597.148 1.9036.585.8459,2.724-.5301-1.072-1.3654-.911-1.7508-1.105l.9049-1.619z" fill="#f00" fill-rule="evenodd" stroke="#000" stroke-width=".625"/> <path transform="matrix(1.1752 0 0 1.1752 263.17 128.92)" d="m25.7192,172.391c.271.541.6622,2.44-1.7146,3.32 .6524-1.68.1264-1.922-.0625-2.455l1.7771-.865z" fill="#f00" fill-rule="evenodd" stroke="#000" stroke-width=".71623"/> <path transform="matrix(1.1752 0 0 1.1752 263.17 128.92)" d="m19.5539,174.592c-.0055.483-.501,1.82-2.8909.797 1.2813-.542 1.0054-.759 1.0768-1.184l1.8141.387z" fill="#f00" fill-rule="evenodd" stroke="#000" stroke-width=".625"/> <path transform="matrix(1.1752 0 0 1.1752 263.17 128.92)" d="m15.0256,163.867c-.4137-.249-1.8119-.53-2.196,2.042 1.1338-.807 1.1738-.458 1.5728-.296l.6232-1.746z" fill="#f00" fill-rule="evenodd" stroke="#000" stroke-width=".625"/> <path transform="matrix(1.1752 0 0 1.1752 263.17 128.92)" d="m88.4696,123.649c.6328-.534 2.804-1.732 3.607.801-1.8424-.146-1.8774.256-2.4924.687l-1.1146-1.488z" fill="#f00" fill-rule="evenodd" stroke="#000" stroke-width=".82584"/> <path transform="matrix(1.1752 0 0 1.1752 263.17 128.92)" d="m90.5837,131.45c.7928-.236 2.9845-1.397 1.3051-3.456-.887,1.622-1.2426,1.431-1.9404,1.709l.6353,1.747z" fill="#f00" fill-rule="evenodd" stroke="#000" stroke-width=".82584"/> <path transform="matrix(1.1752 0 0 1.1752 263.17 128.92)" d="m89.9274,137.467c.6221.031 2.4689-.245 1.7926-2.127-1.0362.929-1.2407.704-1.8057.727l.0131,1.4z" fill="#f00" fill-rule="evenodd" stroke="#000" stroke-width=".6218"/> <path transform="matrix(1.1752 0 0 1.1752 260.57 29.631)" d="m73.4216,144.639 8.7611-9.999c0,0 1.2379-1.524 1.4284-2.952s-3.0473-3.714-3.2378-5.047c.0829-.669.1759-1.358.6817-2.537 .9353-.086 1.5547.06 1.9847.156 1.5237,1.619.9523,3.047.9523,3.428s1.8094-.571 1.8094-.571 1.0475-2.952 1.9998-3.143 1.5236.667 1.7141,1.524-.8571,2.381-3.2378,3.904 3.5235-1.428 4.3805,1.619c.381,2.096-3.9044,2.667-3.9044,2.667s.4762,1.714 1.8094,1.809 .4565.838.7422,1.6-2.4563,2.019-4.3609-.362-6.3804,15.999-6.3804,15.999 .2857,1.428-1.0475,1.047-4.0948-8.856-4.0948-9.142z" fill="#0039ad" fill-rule="evenodd" stroke="#000" stroke-width=".625"/> <path transform="matrix(1.1752 0 0 1.1752 260.57 29.631)" d="m75.3442,104.991c0,2.018 1.6379,7.862-7.6982,8.517-6.1339-.178-6.3525-2.77-9.6638-2.948-5.2413.655-4.5861,5.733-4.5861,5.733s2.5739,5.853-2.6207,10.155c-4.4489,3.118-8.3534,3.767-12.2844,2.457s-19.4912-3.276-18.836,2.62 9.1723,7.862 9.1723,7.862 10.4827,1.802 13.1034,1.966 8.5171-1.474 8.5171-1.474-1.3103-1.638-2.1293-2.948c-.4095-.656 2.3061-.182 3.8091-.572s1.1267-1.739 1.9618-2.041c-2.8324-.633-4.9869-.728-5.1829-3.298 2.3044.763 2.8605.435 3.5157.108s2.0182-3.765 3.3285-4.911 .1227-4.165.7369-4.648c.6181-.35 1.4995.966 2.2492,1.449 0,0 4.9782.809 3.8316,3.102s1.8017-3.112 5.0776-2.784 7.3706,2.457 7.3706,2.457 .6551,2.293-1.1466,2.293 .6552,3.603-.1637,3.931-9.3362.327-7.8621,2.62 5.569,3.276 6.7155,3.113 1.4741,2.62.1638,2.948-3.6034.163-2.6207.982 3.1121,3.604 3.6035,3.276 2.6206,1.147 2.9482,3.44-.3276,4.259-.3276,4.259-2.4569-2.457-2.6206-3.276 .1637,6.06 1.3103,6.224 .8189,2.948 2.1293,2.62-2.9483.656-3.2759,0-2.4568-.982-2.4568-2.129-1.3104,2.948-1.3104,2.948 14.2499,10.811 14.2499,10.647 1.9881-4.845 4.6087-1.569c.0426.659-1.1691,3.862-1.1691,3.862s2.2931,1.965 1.6379,2.621-3.4396.819-4.0947.327 1.6379,2.13.4913,3.604-1.9655-.328-2.7844-.164-2.7845-.655-2.6207-1.638 1.8017-2.293 1.4741-2.621-4.4223.819-4.5861,1.966-2.4569-3.931-2.1293-4.095 2.1293-.819 2.4568-.491-13.7584-6.388-13.9222-6.552-2.7845-.328-3.4397-1.474-.9827-3.604-1.6379-4.586-1.3744-3.876-1.1465-3.112l1.1465,2.62c0,0-2.9482-.164-4.5861-.982s-8.3534-5.078-8.8448-4.75-4.0948-2.621-4.0948-2.621l.819-1.802c.0439-.614-4.0948,5.733-4.75,6.06s-8.3534,2.621-10.4827,4.587-4.5861,3.603-3.4396,5.241c2.4626-2.091 4.9138.491 5.0776,1.638s-2.7845,3.767-3.7673,2.621 1.8018,1.965 1.3104,2.62-3.1121,1.802-3.2759,1.638-1.3103-4.422-1.3103-4.422-1.8017,3.931-1.1465,4.914-3.4397.655-3.4397-1.311 1.4742-3.603 1.4742-3.603-1.3104-2.293-2.2931-2.13-.1638-3.767 2.6207-3.439 .6551-7.371 2.9482-7.862 2.1293,1.146 3.2758,0 7.8914-10.801 7.8914-10.801-8.5465-.337-8.7103-.337 .4914-1.146.4914-1.146-5.2414-.164-5.0776.818 7.5344,4.587-.3276,6.716c.6042-1.951-.1638-3.276-.3276-3.276s-3.4396-2.129-3.2758-4.75 6.3879-2.293 6.3879-2.293-7.043-5.078-6.8793-9.009 8.1896-7.37 8.1896-7.37 2.6207-1.638 2.7845-3.276-1.8017-7.534 6.8792-6.552c-2.0224,1.509-2.293,3.112-2.293,3.112s-.3276,6.552-2.7845,7.207 5.4051.328 5.4051.328 1.6379.491 2.7845-1.147-.9828-7.534 6.7154-7.862c-1.6015,2.305-1.4741,4.095-1.4741,4.095s1.4741,4.914-3.4396,6.552 12.1206,2.457 12.6119-5.405-7.204-8.19-7.862-8.19c-.8773.088-5.414,1.079-7.3706-.328-1.4741-1.801-5.0832-7.718-6.3879-11.465 5.6263,1.605 4.2586,3.767 6.7155,4.914s15.2326.491 15.8878,6.06c1.7519-5.792 7.6982-6.388 7.6982-6.388 2.3249.088 6.3118,1.952 10.4066,2.77 3.9194.161 4.9959-1.904 5.9726-2.77z" fill="#0039ad" fill-rule="evenodd" stroke="#000" stroke-width=".625"/> <path transform="matrix(1.1752 0 0 1.1752 260.57 29.631)" d="m67.708 135.78c0.0953 0 0.1905-1.238 5.3329-1.619s3.9996-3.714 4.4757-4.952 2.1903 2.19 2.0951 3.619-3.333 3.904-6.7613 4.095-5.2376-1.238-5.1424-1.143z" fill="#d61810" fill-rule="evenodd"/> <path transform="matrix(1.1752 0 0 1.1752 260.57 29.631)" d="m59.709 126.16s-0.3809 3.333-0.0952 3.523" fill="none" stroke="#000" stroke-width=".625"/> <path transform="matrix(1.1752 0 0 1.1752 260.57 29.631)" d="m58.852 123.21s-3.0473 3.618-2.3807 5.428 3.0473 4.761 3.1426 5.523 1.0475-1.809 1.0475-1.809" fill="none" stroke="#000" stroke-width=".625"/> <path transform="matrix(1.1752 0 0 1.1752 260.57 29.631)" d="m60.756 136.16s0.0952 1.619-1.3332 1.523 2.476 0.096 2.2855 1.619-2.5712 1.048-2.5712 1.048" fill="none" stroke="#000" stroke-width=".625"/> <path transform="matrix(1.1752 0 0 1.1752 260.57 29.631)" d="m62.47 142.16c-0.0952 0-0.3809 1.524 1.238 1.429" fill="none" stroke="#000" stroke-width=".625"/> <path transform="matrix(1.1752 0 0 1.1752 260.57 29.631)" d="m54.28 138.54s-2.095 1.715-3.333 1.429" fill="none" stroke="#000" stroke-width=".625"/> <path transform="matrix(1.1752 0 0 1.1752 260.57 29.631)" d="m52.9473,139.306c0,0-.9522,6.381-2.3807,7.238s3.5235-.096 4.571-2.476 .5714,4.761-1.9998,7.332c2.8569-1.333 4.571.286 5.7137-4.952-.0952,8.952 4.2853,11.618 4.2853,11.618l.5714-2.952" fill="none" stroke="#000" stroke-linejoin="round" stroke-width=".625"/> <path transform="matrix(1.1752 0 0 1.1752 260.57 29.631)" d="m62.2798,148.448c-.0952.095.7618,5.714 3.5235,5.428 2.7616-.285-1.238-7.142-1.238-7.142" fill="none" stroke="#000" stroke-width=".625"/> <path transform="matrix(1.1752 0 0 1.1752 260.57 29.631)" d="m67.803 147.12s0 4.476 1.3332 4.571-0.4762-4.381-0.4762-4.381" fill="none" stroke="#000" stroke-width=".625"/> <path transform="matrix(1.1752 0 0 1.1752 260.57 29.631)" d="m70.565 147.3s1.7141 5.143 0.9523 8.381" fill="none" stroke="#000" stroke-width=".625"/> <path transform="matrix(1.1752 0 0 1.1752 260.57 29.631)" d="m67.2317,155.59c.3809.572 1.9998,3.524 2.9521,3.905" fill="none" stroke="#000" stroke-width=".625"/> <path transform="matrix(1.1752 0 0 1.1752 260.57 29.631)" d="m70.9456,127.498c-.1904-.095-4.4757-2.571-5.8089.762" fill="none" stroke="#000" stroke-width="1.25"/> <path transform="matrix(1.1752 0 0 1.1752 260.57 29.631)" d="m67.422 127.31-1.8094 1.048" fill="none" stroke="#000" stroke-width="1.25"/> <path transform="matrix(1.1752 0 0 1.1752 260.57 29.631)" d="m63.422 136.74s-0.857 4.762 6.0947 4.285" fill="none" stroke="#000" stroke-width=".625"/> <path transform="matrix(1.1752 0 0 1.1752 260.57 29.631)" d="m37.2346,154.543c0,0 1.4284,1.524.9522,3.619s-2.4759,4.475-3.6187,5.237 7.7136,5.619 9.9991,5.143-3.4283.38-2.7617,1.809 1.6189,2.666 2.9521,2.285 1.8094-2.38 1.8094-2.38-1.3332,3.904-.1905,5.142 4.6663,0 4.6663,0-.8571-2.952-1.7142-3.428 3.5235,1.619 3.714,4.095 1.4189-1.251 3.2378-1.714c-.0953-.191-1.4285-2.476-1.9046-2.381-.4762.095 1.238-1.81 2.1902-1.619s.1905-2.952.2857-2.952-4.7614-.191-5.0471,1.523c-.2857,1.715-7.1422-3.809-7.6183-5.618s2.9521-2.762 2.6664-5.428-1.1428-4.381-1.9999-5.048l-4.19-2.951-3.4282,4.666z" fill="#0039ad" fill-rule="evenodd" stroke="#000" stroke-width=".625"/> <path transform="matrix(1.1752 0 0 1.1752 260.57 29.631)" d="m38.0916,153.781c.2857-.095 7.5231-.571 7.5231-.571" fill="none" stroke="#000" stroke-width=".625"/> <path transform="matrix(1.1752 0 0 1.1752 260.57 29.631)" d="m57.6307,168.044c.4687-.117 1.8874.021 1.5065,2.593-.8497-1.101-.989-.779-1.4187-.74l-.0878-1.853z" fill="#f00" fill-rule="evenodd" stroke="#000" stroke-width=".625"/> <path transform="matrix(1.1752 0 0 1.1752 260.57 29.631)" d="m56.1946,175.355c.453.168 1.5465,1.083-.219,2.991-.0804-1.388-.5333-1.357-.9102-1.567-.1314-.826.2841-1.613 1.1292-1.424z" fill="#f00" fill-rule="evenodd" stroke="#000" stroke-width=".625"/> <path transform="matrix(1.1752 0 0 1.1752 260.57 29.631)" d="m49.0915,176.47c.2059.437.6984,2.325-1.8986,2.452 .3677-1.165.2199-1.591.0981-2.005l1.8005-.447z" fill="#f00" fill-rule="evenodd" stroke="#000" stroke-width=".625"/> <path transform="matrix(1.1752 0 0 1.1752 260.57 29.631)" d="m41.2174,170.947c-.4597.148-1.5911,1.015.0916,2.997 .1395-1.384.4279-1.184.8133-1.378l-.9049-1.619z" fill="#f00" fill-rule="evenodd" stroke="#000" stroke-width=".625"/> <path transform="matrix(1.1752 0 0 1.1752 260.57 29.631)" d="m74.9734,173.396c-.4687-.117-1.8874.06-1.5065,2.632 .8497-1.101 1.8093-.818 2.239-.779l-.7325-1.853z" fill="#f00" fill-rule="evenodd" stroke="#000" stroke-width=".625"/> <path transform="matrix(1.1752 0 0 1.1752 260.57 29.631)" d="m84.0515,179.286c-.0598.48-.7774,1.988-3.0396.706 1.0205-.435 1.1606-.876 1.2794-1.291l1.7602.585z" fill="#f00" fill-rule="evenodd" stroke="#000" stroke-width=".625"/> <path transform="matrix(1.1752 0 0 1.1752 260.57 29.631)" d="m90.0176,174.818c.3329.351.9134,1.652-1.5114,2.591 .538-1.282.1891-1.244-.0568-1.599l1.5682-.992z" fill="#f00" fill-rule="evenodd" stroke="#000" stroke-width=".625"/> <path transform="matrix(1.1752 0 0 1.1752 260.57 29.631)" d="m80.8837,123.369c-.117-.819.021-3.295 2.593-2.631-1.101,1.484-.779,1.727-.74,2.477l-1.853.154z" fill="#f00" fill-rule="evenodd" stroke="#000" stroke-width=".82584"/> <path transform="matrix(1.1752 0 0 1.1752 260.57 29.631)" d="m89.4849,168.435c.483.004 1.8224.492.8114,2.887-.548-1.278-.7631-1.001-1.189-1.07l.3776-1.817z" fill="#f00" fill-rule="evenodd" stroke="#000" stroke-width=".625"/> <path transform="matrix(1.1752 0 0 1.1752 260.57 29.631)" d="m29.3301,165.869c.4597.148 1.9036.585.8459,2.724-.5301-1.072-1.3654-.911-1.7508-1.105l.9049-1.619z" fill="#f00" fill-rule="evenodd" stroke="#000" stroke-width=".625"/> <path transform="matrix(1.1752 0 0 1.1752 260.57 29.631)" d="m25.7192,172.391c.271.541.6622,2.44-1.7146,3.32 .6524-1.68.1264-1.922-.0625-2.455l1.7771-.865z" fill="#f00" fill-rule="evenodd" stroke="#000" stroke-width=".71623"/> <path transform="matrix(1.1752 0 0 1.1752 260.57 29.631)" d="m19.5539,174.592c-.0055.483-.501,1.82-2.8909.797 1.2813-.542 1.0054-.759 1.0768-1.184l1.8141.387z" fill="#f00" fill-rule="evenodd" stroke="#000" stroke-width=".625"/> <path transform="matrix(1.1752 0 0 1.1752 260.57 29.631)" d="m15.0256,163.867c-.4137-.249-1.8119-.53-2.196,2.042 1.1338-.807 1.1738-.458 1.5728-.296l.6232-1.746z" fill="#f00" fill-rule="evenodd" stroke="#000" stroke-width=".625"/> <path transform="matrix(1.1752 0 0 1.1752 260.57 29.631)" d="m88.4696,123.649c.6328-.534 2.804-1.732 3.607.801-1.8424-.146-1.8774.256-2.4924.687l-1.1146-1.488z" fill="#f00" fill-rule="evenodd" stroke="#000" stroke-width=".82584"/> <path transform="matrix(1.1752 0 0 1.1752 260.57 29.631)" d="m90.5837,131.45c.7928-.236 2.9845-1.397 1.3051-3.456-.887,1.622-1.2426,1.431-1.9404,1.709l.6353,1.747z" fill="#f00" fill-rule="evenodd" stroke="#000" stroke-width=".82584"/> <path transform="matrix(1.1752 0 0 1.1752 260.57 29.631)" d="m89.9274,137.467c.6221.031 2.4689-.245 1.7926-2.127-1.0362.929-1.2407.704-1.8057.727l.0131,1.4z" fill="#f00" fill-rule="evenodd" stroke="#000" stroke-width=".6218"/> </svg>