<?xml version="1.0" encoding="utf-8"?>
<!-- Generator: Adobe Illustrator 19.2.1, SVG Export Plug-In . SVG Version: 6.00 Build 0)  -->
<svg version="1.1" id="Ebene_1" xmlns="http://www.w3.org/2000/svg" xmlns:xlink="http://www.w3.org/1999/xlink" x="0px" y="0px"
	 viewBox="0 0 380 426" style="enable-background:new 0 0 380 426;" xml:space="preserve">
<style type="text/css">
	.st0{display:none;}
	.st1{display:inline;fill:#FFFFFF;}
	.st2{display:inline;}
	.st3{clip-path:url(#SVGID_2_);}
	.st4{display:inline;fill:none;}
	.st5{fill:#0705EF;}
	.st6{fill:#EAEB16;stroke:#000000;stroke-linejoin:bevel;stroke-miterlimit:79.8403;}
	.st7{fill:#EAEB16;stroke:#000000;stroke-width:1.052;stroke-linejoin:bevel;stroke-miterlimit:79.8403;}
	.st8{fill:#EAEB16;stroke:#000000;stroke-width:1.148;stroke-linejoin:bevel;stroke-miterlimit:79.8403;}
	.st9{fill:none;stroke:#000000;stroke-linejoin:bevel;stroke-miterlimit:79.8403;}
	.st10{fill:#DFE1E0;stroke:#000000;stroke-linejoin:bevel;stroke-miterlimit:79.8403;}
	.st11{fill:none;stroke:#000000;stroke-width:0.999;stroke-linejoin:bevel;stroke-miterlimit:79.8403;}
	.st12{fill:#EAEB16;}
	.st13{fill:#DFE1E0;}
	.st14{fill:none;}
</style>
<g id="Document" transform="scale(1 -1)">
	<g id="Spread" transform="translate(0 -595.277)">
		<g id="Layer_1" class="st0">
			<path id="Shape" marker-end="none" marker-start="none" class="st1" d="M-9.4,606.9h393V158.4h-393V606.9z"/>
			<g class="st2">
				<defs>
					<rect id="SVGID_1_" x="-9.4" y="158.4" />
				</defs>
				<clipPath id="SVGID_2_">
					<use xlink:href="#SVGID_1_"  style="overflow:visible;"/>
				</clipPath>
				<g class="st3">
					<g transform="translate(252.319 532.569) scale(393000 -448500)">
						
							<image style="overflow:visible;enable-background:new    ;"  id="Bitmap" xlink:href="5C89A045.png"  transform="matrix(0.75 0 0 -0.75 -9.411 606.8519)">
						<title>Bitmap7</title>
						</image>
					</g>
				</g>
			</g>
			<path id="Shape_1_" marker-end="none" marker-start="none" class="st4" d="M-9.4,606.9h393V158.4h-393V606.9z"/>
		</g>
		<g id="Layer_2">
			<path marker-end="none" marker-start="none" class="st5" d="M3.1,349.9l0,1.5h0v3.6l0,0.9l0,0.9v235.5h374l0-235.1l0-1.3l0-1.2
				v-3.3h0l0-1.5c-3.2-98.5-85.7-177.6-186.9-177.6C88.8,172.3,6.3,251.4,3.1,349.9z"/>
			<path marker-end="none" marker-start="none" class="st6" d="M308.3,317.7c-1.4,20.1-0.2,42.6,5.7,63.7c2.9,10.5,7,20.7,12.5,30.1
				c0.8,1.4,2,2.7,3.3,3.8c4.4,4.1,8.3,1.1,5.4-3.5c-8.1-12.8-20.4-34.8-18.7-94.5L308.3,317.7z"/>
			<path marker-end="none" marker-start="none" class="st6" d="M315.9,317.4c0.5,20.2,2.2,42.8,10,63.3c3.9,10.2,8.9,19.9,15.3,28.7
				c1,1.3,2.3,2.5,3.6,3.5c4.8,3.7,8.3,0.3,5.1-4c-10.1-13.9-25.9-42.1-25.8-92.6L315.9,317.4z"/>
			<path marker-end="none" marker-start="none" class="st6" d="M121.5,348.4c-3.9-11.6-8.9-22.6-17.6-31.2c3-2.7,6.2-5,10.5-5
				c2.6,12,6.9,23.1,14,32.9C126.7,347.6,124.7,349.2,121.5,348.4z"/>
			<path marker-end="none" marker-start="none" class="st6" d="M134.9,257.2c-8.8,8.4-16.6,17.7-20.7,29.3c-3.8-1.5-7.2-3.5-9-7.4
				c9.7-7.5,18-16.1,23.8-26.7C132,252.8,134.3,254,134.9,257.2z"/>
			<path marker-end="none" marker-start="none" class="st6" d="M84.3,250.3c3.5,11.7,8.1,22.9,16.6,31.7c-3.1,2.6-6.4,4.8-10.7,4.7
				c-2.2-12-6.1-23.4-12.9-33.4C79,250.9,81.2,249.4,84.3,250.3z"/>
			<path marker-end="none" marker-start="none" class="st6" d="M53,286.1c11.9,2.7,23.9,4.2,35.8,1.2c0.8,4,1,7.9-1.2,11.6
				c-11.6-4-23.3-6.2-35.4-5.3C50.9,291,50.6,288.4,53,286.1z"/>
			<path marker-end="none" marker-start="none" class="st6" d="M67.7,341.7c8.2-9,15.3-18.8,18.5-30.7c3.9,1.3,7.4,3,9.5,6.7
				c-9.1,8.1-16.8,17.3-21.8,28.4C71,345.9,68.6,344.9,67.7,341.7z"/>
			<path marker-end="none" marker-start="none" class="st6" d="M30.3,297.6c0,37.4,30.4,67.8,67.8,67.8c37.4,0,67.8-30.4,67.8-67.8
				c0-37.4-30.4-67.8-67.8-67.8C60.7,229.8,30.3,260.2,30.3,297.6z M149.8,297.6c0,28.5-23.1,51.6-51.7,51.6
				c-28.5,0-51.7-23.1-51.7-51.6c0-28.5,23.1-51.6,51.7-51.6C126.6,245.9,149.8,269.1,149.8,297.6z"/>
			<path marker-end="none" marker-start="none" class="st6" d="M107.9,566.7l-64.2-36l71.5,19l-1.1,15.2L107.9,566.7z"/>
			<path marker-end="none" marker-start="none" class="st6" d="M122.3,538.8l-44.1-58.9l57.7,46.3l-7.1,13.4L122.3,538.8z"/>
			<path marker-end="none" marker-start="none" class="st7" d="M147.4,520.3L129,445.1l36.8,68.6l-12.4,10.1L147.4,520.3z"/>
			<path marker-end="none" marker-start="none" class="st8" d="M176.8,518.9l13.2-83.6l8.1,84.7l-16.8,4.9L176.8,518.9z"/>
			<path marker-end="none" marker-start="none" class="st8" d="M207.7,521.2l41.9-73.5l-22.4,82.1l-17.4-1.4L207.7,521.2z"/>
			<path marker-end="none" marker-start="none" class="st8" d="M233.3,534.5l66.4-52.5l-51.4,67.8l-15.7-7.8L233.3,534.5z"/>
			<path marker-end="none" marker-start="none" class="st8" d="M252.7,558.6l80.8-20.9l-72.3,37.2l-11.8-10.7L252.7,558.6z"/>
			<path marker-end="none" marker-start="none" class="st8" d="M264.1,579.8l-6,4.5l2.3,8h80.5L264.1,579.8z"/>
			<path marker-end="none" marker-start="none" class="st8" d="M105.5,579.9l-84.2,12.2l1.6,0.2h86.9L105.5,579.9z"/>
			<path marker-end="none" marker-start="none" class="st8" d="M107.3,578.4c-5.7,4.5-15.2,2.1-21.7-1.4c-5.5-2.9-11.9-4.2-16.5-4.1
				c-6.4,0.3-11.5-1.8-16.5-5.7c-6.1-4.8-7.4-5.5-18.1-6c3.7-7.3,20.4-0.6,24.4,0.8c4.8,1.7,8.7,2.7,13.5,1.4
				c6.6-1.8,12.9,1.5,17.9,3.8c5.6,2.5,19.5-3.3,18.7,2.2C108.5,572.4,109.7,576.5,107.3,578.4z"/>
			<path marker-end="none" marker-start="none" class="st8" d="M122.5,550.5c-9.1,1.8-19.5-8-24-13.9c-3.8-5-9.2-8.8-13.5-10.6
				c-5.9-2.4-9.9-6.4-12.8-12.1c-3.6-7-4.6-8.2-14.2-13c6.4-5.2,19,7.9,22.1,10.9c3.7,3.5,6.7,7.2,11.6,8.4
				c11.5,2.7,38.1,23.1,35.8,24.1C124.6,545.4,125.1,550,122.5,550.5z"/>
			<path marker-end="none" marker-start="none" class="st8" d="M139.3,526.3c-7.1-1.2-11.9-9.8-13.7-16.9c-1.5-6-4.9-11.6-8.2-14.9
				c-4.5-4.5-6.5-9.7-7-16c-0.6-7.8-1-9.2-7.9-17.4c7.9-2.3,14.2,14.6,15.9,18.5c2,4.6,3.9,8.2,8.2,10.9c5.8,3.7,7.6,10.5,9.3,15.7
				c1.9,5.8,15.6,12.2,11,15.2C144.5,523.2,142.3,526.8,139.3,526.3z"/>
			<path marker-end="none" marker-start="none" class="st8" d="M168.3,514.2c-9.8-6.4-5.7-20.1-4.6-29.5c0.8-6.9,0.1-14.3-2.7-20.6
				c-1.6-3.7-3.7-8-1.9-12.2c2.2-5.4,2-10.2,0-16.5c3.8,0.3,7,8.6,6.8,17.1c-0.1,5.8,2.4,11.5,5.1,16.5c3.6,6.7,2.1,13,1.9,19
				c-0.2,4.9,3.1,9.3,4.1,14.1c0.7,3.7,3.7,8.2,1.4,11.1C176.2,515.7,171,516.2,168.3,514.2z"/>
			<path marker-end="none" marker-start="none" class="st8" d="M199,511.7c-6-11.7,3.7-25.8,6.9-28.4c6.5-5.4,7.3-14.5,7.5-21.4
				c0.2-5.5,5.7-9.6,8.6-14.4c1.8-3,4.7-4.9,5.5-8.9c0.2,7.4-1.4,13-4.9,20.3c-2.7,5.7-1.7,10-0.9,14.4c1.5,7.2-4.8,14-7.8,20.9
				c-3.1,7.1,1.8,17.9-3.7,21.7C206.8,518.1,200.8,515.1,199,511.7z"/>
			<path marker-end="none" marker-start="none" class="st8" d="M229.5,523.7c-1.6-6.7,7.5-15.6,14.4-21.7c4.5-4,7.6-8.9,9.5-14.9
				c1.6-5.2,8.8-6.5,12.7-10.3c4.1-4,8.7-7.4,11.4-13c1.2,10.3-6,19.7-13.3,26c-3.3,2.9-2.4,7.5-4.3,10.8c-2.7,4.8-5.6,9.8-10,13
				c-7.9,5.8-6.3,16.7-8.7,18.4C237.2,534.8,230.4,528.3,229.5,523.7z"/>
			<path marker-end="none" marker-start="none" class="st8" d="M258.5,557.5c6.2,1.5,10.3-7.7,15.7-11.1c1.5-0.9,3.1-1.7,4.7-2.5
				c1.1-0.6,2.3-1.2,3.4-1.8c4.4-2.3,8.7-4.9,10.6-8.9c1.7-3.6,4-5.2,14.4-9.8c6.6-2.9,12.6-10.4,13.5-16.5
				c-7.4,6.1-14.9,10.3-23,12.2c-6.7,1.6-11.2,5.8-16.3,10.3c-4.6,4.1-13.5,4.4-19.5,8.1c-3.6,2.3-9,4.2-9.8,8.4
				C251.4,550.2,254.2,556.5,258.5,557.5z"/>
			<path marker-end="none" marker-start="none" class="st8" d="M263.6,573c1.6-2,3.4-1.2,5.7-1.9c6-1.9,14.1-2.7,20.3-1.4
				c5.8,1.3,12.8-0.2,18.1-2.7c6.6-3.1,12.5-2.2,18.4,0.8c4.3,2.2,8.7,1.3,14.4,0c-3.3,4.4-11.6,6.5-18.7,6
				c-5.6-0.4-9.2,3.1-13.3,4.6c-10.9,4-28.3,5.8-39.3,3.5c-3.3-0.7-4.4,0.9-5.7-0.5C261.7,579.3,262,575.2,263.6,573z"/>
			<path marker-end="none" marker-start="none" class="st6" d="M104.1,590.5c0,0.9,0,1.8,0,2.8h167.3c0-0.9,0-1.8,0-2.8
				c0-45.6-37.5-82.7-83.7-82.7C141.6,507.8,104.1,544.9,104.1,590.5z"/>
			<path class="st9" d="M237.1,594.1L237.1,594.1c-0.4-22-10-35.4-24.1-44.4"/>
			<path class="st9" d="M246.3,593.5c-1.2-32.7-17.8-48.3-40.1-57.7"/>
			<path class="st9" d="M254.4,593.5c-1.6-42-30.6-65.8-65.6-68.8"/>
			<path class="st9" d="M261.2,593.3c1.1-49.6-44.4-82.6-87.8-73.7"/>
			<path class="st9" d="M265.8,593.3c2.7-53.4-50.1-95.1-105.4-75.3"/>
			<path class="st9" d="M69.6,568.6c5,0.9,10.6,0.2,15,2.7c4.8,2.8,9.8,4.5,15,3"/>
			<path class="st9" d="M89.3,524.2c4.4,2.6,9.9,3.8,13.2,7.7c3.6,4.3,7.6,7.5,13,7.9"/>
			<path class="st9" d="M121.8,491.3c2.6,4.8,6.7,9.6,7.8,14.5c1.2,5.4,4.8,9.9,9.5,12.7"/>
			<path class="st9" d="M167.2,473.3c0.5,5.5,2.4,11.4,1.5,16.4c-1,5.5,0.5,11,3.7,15.4"/>
			<path class="st9" d="M214.5,475.6c-0.8,5.9-1.3,12.2-5.4,15.6c-4.2,3.6-4,10.3-2.9,15.6"/>
			<path class="st9" d="M258.4,493.7c-3,5.1-6.5,9.5-10.9,12.4c-4.7,3-7.4,8.4-8.7,13.3"/>
			<path class="st9" d="M291.5,528.3c-3.4,2.8-6.8,7.4-14.9,9.3c-2,0.5-11.3,6-13.1,8.8"/>
			<path class="st9" d="M311.6,574.2c-5.9-1-10-0.8-18.5,1.2c-3.1,0.7-17,0.9-19.4,1.4"/>
			<path marker-end="none" marker-start="none" class="st10" d="M253,332h25.2v-87.8h-57.2C240.1,261.5,250.4,291.3,253,332z"/>
			<path marker-end="none" marker-start="none" class="st6" d="M81.9,297.4c-0.1-3.5-0.7-7,5.1-10.6l10,6.8L81.9,297.4z"/>
			<path class="st8" d="M349.5,299.3l-0.1,18.3c0,1.3-1,2.3-2.3,2.3l-266.6-1.3c-1.3,0-2.3-1-2.3-2.3l0.1-18.3c0-1.3,1-2.3,2.3-2.3
				l266.6,1.3C348.5,297,349.5,298,349.5,299.3z"/>
			<path class="st9" d="M39.3,297.9l16-0.3"/>
			<path marker-end="none" marker-start="none" class="st6" d="M104.1,350.2c1.5-12.1,1.7-24.2-2.4-35.8c3.9-1.2,7.8-1.8,11.6,0
				c-2.8,11.9-3.8,23.8-1.6,35.8C109.1,351.7,106.6,352.2,104.1,350.2z"/>
			<path marker-end="none" marker-start="none" class="st6" d="M151.2,326.9c-9.7-7.3-20.1-13.5-32.2-15.7c0.9-4,2.3-7.6,5.8-10.1
				c8.9,8.4,18.8,15.2,30.2,19.2C155.1,323.3,154.3,325.7,151.2,326.9z"/>
			<path marker-end="none" marker-start="none" class="st6" d="M154.9,276.2c-11.4,4.4-22.1,9.9-30.3,19.1c-2.9-2.9-5.3-6-5.5-10.3
				c11.8-3.2,22.8-7.9,32.3-15.5C153.9,271,155.5,273,154.9,276.2z"/>
			<path marker-end="none" marker-start="none" class="st6" d="M112.6,245.1c-2.2,12-3.2,24.1,0.3,35.8c-3.9,0.9-7.9,1.3-11.6-0.7
				c3.5-11.7,5.2-23.6,3.8-35.6C107.6,243.2,110.2,242.8,112.6,245.1z"/>
			<path marker-end="none" marker-start="none" class="st6" d="M64.4,266.9c9.5,7.6,19.7,14.1,31.8,16.6c-1,3.9-2.5,7.6-6.1,9.9
				c-8.7-8.6-18.3-15.7-29.7-20C60.4,270.4,61.3,268,64.4,266.9z"/>
			<path marker-end="none" marker-start="none" class="st6" d="M60.2,321.1c11.3-4.6,21.9-10.4,29.9-19.7c2.9,2.8,5.4,5.9,5.7,10.1
				c-11.8,3.4-22.6,8.4-31.9,16.1C61.3,326.3,59.6,324.4,60.2,321.1z"/>
			<ellipse class="st8" cx="106.8" cy="297.9" rx="18" ry="-18"/>
			<ellipse class="st6" cx="106.8" cy="297.9" rx="9.3" ry="-9.3"/>
			<path marker-end="none" marker-start="none" class="st6" d="M39,297.9c0,37.4,30.4,67.8,67.8,67.8c37.4,0,67.8-30.4,67.8-67.8
				c0-37.4-30.4-67.8-67.8-67.8C69.4,230.1,39,260.5,39,297.9z M158.5,297.9c0,28.5-23.1,51.7-51.7,51.7
				c-28.5,0-51.7-23.1-51.7-51.7c0-28.5,23.1-51.7,51.7-51.7C135.3,246.2,158.5,269.4,158.5,297.9z"/>
			<path class="st9" d="M79.4,342.3L71,355"/>
			<path class="st11" d="M133.3,343.4l7,13.3"/>
			<path class="st9" d="M159.1,299.8h15.4"/>
			<path class="st9" d="M136.8,255.1l8.9-12.7"/>
			<path class="st11" d="M73.5,239.1l7.6,12.7"/>
			<path marker-end="none" marker-start="none" d="M0.2,348.3H0v6.6l0,0.9l0,0.9v238.5h380l0-238.1l0-1.4l0-1.2v-6.3h-0.1
				c-4-99.5-87.6-179-189.9-179C87.7,169.3,4.2,248.8,0.2,348.3z M376.9,349.9l0,1.5h0v3.3l0,1.2l0,1.3l0,235.1H3V356.8l0-0.9l0-0.9
				v-3.6h0l0-1.5C6.3,251.4,88.8,172.3,190,172.3C291.2,172.3,373.7,251.4,376.9,349.9z"/>
		</g>
	</g>
	<g id="Spread_1" transform="translate(0 -595.277)">
		<g id="Layer_3_x5F_1">
			<path marker-end="none" marker-start="none" class="st5" d="M3.1,349.9l0,1.5h0v3.6l0,0.9l0,0.9v235.5h374l0-235.1l0-1.3l0-1.2
				v-3.3h0l0-1.5c-3.2-98.5-85.7-177.6-186.9-177.6C88.8,172.3,6.3,251.4,3.1,349.9z"/>
			<path marker-end="none" marker-start="none" class="st12" d="M190,435.3l-11.3,71.9c-0.5-1.8-1.3-3.6-1.7-5.2
				c-1-4.8-4.2-9.2-4.1-14.1c0.2-6,1.7-12.3-1.9-19c-2.8-5.1-5.3-10.8-5.1-16.5c0.2-8.5-3-16.8-6.8-17.1c2,6.3,2.2,11.1,0,16.5
				c-1.7,4.2,0.3,8.5,1.9,12.2c2.8,6.3,3.5,13.7,2.7,20.6c-0.9,8.1-4,19.3,1.2,26.3c-0.2,0-0.3,0.1-0.5,0.1l-35.4-66l17.8,72.7
				c-2.7-3.3-9.6-7.6-10.9-11.5c-1.7-5.2-3.5-12.1-9.3-15.7c-4.3-2.7-6.2-6.2-8.2-10.9c-1.7-3.9-8-20.8-15.9-18.5
				c6.9,8.2,7.3,9.6,7.9,17.4c0.5,6.3,2.5,11.5,7,16c3.3,3.3,6.7,8.9,8.2,14.9c1.5,6.1,5.2,13.2,10.7,15.9c-0.2,0.2-0.5,0.4-0.7,0.6
				l-57.4-46l43.8,58.5c-8-6.5-22.6-16.5-30.4-18.3c-4.9-1.2-7.9-4.9-11.6-8.4c-3.1-3-15.7-16.1-22.1-10.9c9.7,4.8,10.6,6,14.2,13
				c3,5.7,6.9,9.7,12.8,12.1c4.3,1.8,9.7,5.6,13.5,10.6c3.2,4.2,9.4,10.3,15.9,12.9l-70.7-18.8l64,35.9c-0.1,0.2-0.1,0.4-0.2,0.6
				c-3.7-1-12.9,1.9-17.2,0c-5-2.2-11.3-5.6-17.9-3.8c-4.9,1.3-8.8,0.3-13.5-1.4c-4-1.4-20.7-8.1-24.4-0.8c10.7,0.4,12,1.1,18.1,6
				c5,3.9,10.2,5.9,16.5,5.7c4.6-0.2,11.1,1.1,16.5,4.1c3.9,2.1,8.9,3.8,13.5,3.8l-77.8,11.3l1.6,0.2h81.2c0,0.3,0,0.7,0,1h167.3
				c0-0.3,0-0.7,0-1h69.4l-57.9-9.4c9-0.3,18.6-1.9,25.6-4.5c4-1.5,7.6-5,13.3-4.6c7,0.5,15.4-1.6,18.7-6c-5.6,1.3-10.1,2.2-14.4,0
				c-5.9-3-11.8-3.9-18.4-0.8c-5.4,2.5-12.4,4-18.1,2.7c-6.2-1.4-14.3-0.5-20.3,1.4c-0.1,0-0.1,0-0.2,0c0-0.1,0-0.2-0.1-0.3
				l64.4-33.1l-68.7,17.8c3.2-2.6,6-7,9.4-9.1c1.5-0.9,3.1-1.7,4.7-2.5c1.1-0.6,2.3-1.2,3.4-1.8c4.4-2.3,8.7-4.9,10.6-8.9
				c1.7-3.6,4-5.2,14.4-9.8c6.6-2.9,12.6-10.4,13.5-16.5c-7.4,6.1-14.9,10.3-23,12.2c-6.7,1.6-11.2,5.8-16.3,10.3
				c-4.6,4.1-13.5,4.4-19.5,8.1c-2.1,1.3-4.8,2.5-6.8,4.1c-0.1-0.2-0.2-0.3-0.3-0.5l44.9-59.1l-56.9,45c0.8-4.1,2-9.7,7-13.3
				c4.4-3.2,7.3-8.3,10-13c1.9-3.4,1-7.9,4.3-10.8c7.3-6.3,14.4-15.7,13.3-26c-2.7,5.6-7.2,9-11.4,13c-3.9,3.8-11.1,5.1-12.7,10.3
				c-1.9,6-5,10.9-9.5,14.9c-4.7,4.1-10.5,9.7-13.1,14.9l18.8-69.2l-36.5,64c-0.1,0-0.2-0.1-0.4-0.1c1-5-1.1-12.2,1.2-17.4
				c3-6.8,9.2-13.6,7.8-20.9c-0.9-4.4-1.8-8.7,0.9-14.4c3.5-7.3,5.1-12.9,4.9-20.3c-0.7,4-3.7,6-5.5,8.9c-2.9,4.8-8.5,8.9-8.6,14.4
				c-0.2,6.9-1,16-7.5,21.4c-2.9,2.4-11.1,14.2-8.2,25.1c-0.2,0-0.5-0.1-0.7-0.1L190,435.3z M104.7,580l-0.7,0.1
				c0.2-0.1,0.5-0.2,0.7-0.3C104.8,579.9,104.8,579.9,104.7,580z"/>
			<path marker-end="none" marker-start="none" class="st13" d="M253,332h25.2v-87.8h-57.2C240.1,261.5,250.4,291.3,253,332z"/>
			<path marker-end="none" marker-start="none" d="M0.2,348.3H0v6.6l0,0.9l0,0.9v238.5h380l0-238.1l0-1.4l0-1.2v-6.3h-0.1
				c-4-99.5-87.6-179-189.9-179C87.7,169.3,4.2,248.8,0.2,348.3z M376.9,349.9l0,1.5h0v3.3l0,1.2l0,1.3l0,235.1H3V356.8l0-0.9l0-0.9
				v-3.6h0l0-1.5C6.3,251.4,88.8,172.3,190,172.3C291.2,172.3,373.7,251.4,376.9,349.9z"/>
			<path marker-end="none" marker-start="none" class="st12" d="M30.3,297.6c0,37.4,30.4,67.8,67.8,67.8c0.6,0,1.2,0,1.8,0
				c2.2,0.2,4.5,0.3,6.8,0.3c30,0,55.5-19.6,64.4-46.7l136.9,0.7c-1.2,19.6,0.1,41.3,5.8,61.6c2.9,10.5,7,20.7,12.5,30.1
				c0.8,1.4,2,2.7,3.3,3.8c4.4,4.1,8.3,1.1,5.4-3.5c-7.6-12-18.9-32.2-18.8-83.9c0.9,17.4,3.1,35.9,9.6,52.9
				c3.9,10.2,8.9,19.9,15.3,28.7c1,1.3,2.3,2.5,3.6,3.5c4.8,3.7,8.3,0.3,5.1-4c-9.9-13.6-25.2-40.8-25.8-89.1l22.8,0.1
				c1.4,0,2.6-1.4,2.6-3.2l0.1-16.4c0-1.8-1.2-3.2-2.6-3.3l-172.4-0.9c-0.9-36.6-30.9-66-67.8-66c-0.7,0-1.5,0-2.2,0
				c-2.1-0.2-4.3-0.3-6.5-0.3C60.7,229.8,30.3,260.2,30.3,297.6z M105.2,246.4c1.1,11.4-0.6,22.6-4,33.8c0.2,0.1,0.5,0.3,0.7,0.4
				c-0.6,0.2-1.3,0.4-1.9,0.6c-7.7-8.5-12.2-19-15.5-29.9c6-2.9,12.6-4.6,19.6-5C104.5,246.3,104.8,246.4,105.2,246.4z M127.5,255.1
				c-4.4,7.2-9.9,13.4-16.2,19c-1.4-8.7-0.7-17.5,0.7-26.3C117.7,249.4,122.9,251.9,127.5,255.1z M89.2,281.6
				c-8.8-3.1-16.7-8.2-24.1-14.1c3.6-5,8.1-9.3,13.2-12.7C83.6,263,87,272,89.2,281.6z M144.3,274.5c-7.7,4.8-16.1,8.1-25,10.5
				c-1-1-2.2-1.9-3.4-2.6c3.9-8.8,10-16.2,16.9-23.1C137.5,263.6,141.4,268.7,144.3,274.5z M84.5,288.2c-9.4,1.5-18.8,0.6-28.2-1.4
				c1-4.7,2.7-9.1,4.8-13.2C69.8,277.1,77.5,282.1,84.5,288.2z M149.8,296l-25.1-0.1c0-0.2,0-0.4-0.1-0.5c0,0,0,0,0,0
				c6.2-6.9,13.8-11.7,22-15.6C148.5,284.8,149.6,290.3,149.8,296z M79.3,296.4c-0.6,0.6-0.9,1.5-0.9,2.5l-0.1,12.9
				c-5.5,3.7-11.5,6.6-17.7,9.2c-3.5-6.9-5.4-14.8-5.4-23.1c0-0.1,0-0.1,0-0.2l0.2,0l0-0.1l-0.2,0c0-1.4,0.1-2.7,0.2-4.1
				C63.5,293.2,71.4,294.3,79.3,296.4z M89,295.7L89,295.7c0,0,0-0.1,0-0.1l0,0C89,295.6,89,295.6,89,295.7z M80.9,318.6l2.7,0
				c-2.8,6.4-6.7,12.3-11.2,17.8c-3-2.7-5.7-5.7-8-9c4.6-3.8,9.6-6.9,14.9-9.5C79.7,318.3,80.3,318.6,80.9,318.6z M94.7,318.6l8.2,0
				c2.7,9.8,2.5,20,1.3,30.2c-1.2,0.1-2.4,0.2-3.6,0.3c-8.7-1-16.8-4.3-23.6-9.1C81.6,332,87.7,325,94.7,318.6z M116,318.7l23.3,0.1
				c1.6,0.9,3.1,1.8,4.6,2.8c-4.2,8-10.5,14.8-18.1,19.6C121.3,334.3,118.2,326.7,116,318.7z M120.1,344.3c-2.8,1.3-5.8,2.4-8.8,3.2
				c-1-7.2-1-14.3-0.1-21.5C114.9,331.7,117.7,337.9,120.1,344.3z"/>
			<path marker-end="none" marker-start="none" d="M313.5,381.5c2.9,10.6,7,20.8,12.5,30.2c0.9,1.5,2.1,2.8,3.3,3.9
				c2.3,2.1,4.6,2.6,6.1,1.5c1.5-1.1,1.6-3.3,0.1-5.7c-7.9-12.5-19.9-34-18.7-91.6l-1,0c-1.2,57.8,10.8,79.5,18.8,92.2
				c1.4,2.2,1,3.8,0.2,4.3c-0.9,0.6-2.7,0.5-4.8-1.5c-1.2-1.1-2.4-2.3-3.2-3.7c-5.5-9.3-9.5-19.4-12.4-29.9
				c-5.6-20.3-6.9-41.9-5.8-61.5l-1,0C306.5,339.3,307.8,361,313.5,381.5z"/>
			<path marker-end="none" marker-start="none" d="M325.4,380.8c3.9,10.2,8.9,20,15.3,28.9c1,1.4,2.4,2.6,3.7,3.6
				c2.4,1.9,4.8,2.1,6.2,1c1.4-1.2,1.3-3.4-0.4-5.7c-9.9-13.5-25.1-40.6-25.7-88.8l-1,0c0.6,48.4,15.9,75.8,25.9,89.4
				c1.5,2.1,1.3,3.7,0.5,4.3c-0.8,0.7-2.6,0.8-4.9-1c-1.3-1-2.6-2.1-3.5-3.4c-6.3-8.8-11.3-18.5-15.2-28.6
				c-7.5-19.6-9.3-41.2-9.9-60.8l-1,0C316.1,339.3,317.9,361.1,325.4,380.8z"/>
			<path marker-end="none" marker-start="none" d="M125.3,341.5c0.3-0.2,0.6-0.4,0.8-0.5c-4.3-6.9-7.4-14.3-9.6-22.3l-1,0
				C117.7,326.8,120.8,334.5,125.3,341.5z M111,326.9c3.6,5.5,6.3,11.4,8.6,17.7c0.3-0.1,0.6-0.3,0.9-0.4c-2.4-6.6-5.4-13-9.3-18.8
				C111.2,325.8,111.1,326.4,111,326.9z"/>
			<path marker-end="none" marker-start="none" d="M111.2,273.6c0.1,0.4,0.1,0.8,0.2,1.2c6.4-5.7,12.1-12,16.5-19.3
				c-0.3-0.2-0.6-0.4-0.8-0.6C122.8,261.9,117.4,268,111.2,273.6z M115.5,282.1c0.3,0.2,0.6,0.3,0.9,0.5c3.9-8.8,10-16.2,16.8-23
				c-0.2-0.2-0.5-0.5-0.7-0.7C125.5,265.8,119.4,273.3,115.5,282.1z"/>
			<path marker-end="none" marker-start="none" d="M84.1,251.5c3.3,10.9,7.8,21.4,15.5,29.9c0.3-0.1,0.7-0.3,1-0.4
				c-7.8-8.5-12.2-18.9-15.6-30C84.7,251.2,84.4,251.3,84.1,251.5z M77.9,255.1c5.2,8,8.6,16.9,10.8,26.3c0.4,0.1,0.7,0.3,1.1,0.4
				c-2.2-9.7-5.7-18.9-11-27.2C78.4,254.7,78.2,254.9,77.9,255.1z"/>
			<path marker-end="none" marker-start="none" d="M56.2,287.4c9.5,2,19.2,2.9,28.8,1.3c-0.3-0.3-0.7-0.6-1-0.9
				c-9.2,1.4-18.4,0.5-27.6-1.4C56.4,286.7,56.3,287,56.2,287.4z M88.4,295.7l1,0c0.2-0.8,0.3-1.7,0.4-2.5c-0.3-0.3-0.6-0.6-1-1
				C88.8,293.4,88.7,294.5,88.4,295.7z M55.4,293c0,0.3-0.1,0.7-0.1,1c8-0.3,15.9,0.8,23.7,2.8c0.2-0.3,0.5-0.6,0.8-0.8
				C71.8,293.8,63.7,292.7,55.4,293z"/>
			<path marker-end="none" marker-start="none" d="M72,336c0.2,0.2,0.5,0.4,0.7,0.7c4.5-5.6,8.5-11.5,11.4-18.1l-1.1,0
				C80.2,324.9,76.4,330.6,72,336z M76.6,339.8c0.3,0.2,0.5,0.4,0.8,0.6c4.7-8.2,10.9-15.3,18-21.7l-1.5,0
				C87.1,324.9,81.2,331.9,76.6,339.8z"/>
			<path class="st14" d="M97.9,348.7c-28.7-0.1-50.9-23-50.9-51.1c0-28.2,22.9-51.1,51.2-51.1c27.7,0,50.3,22.1,51.1,49.5l1,0
				c-0.8-28-23.9-50.5-52.1-50.5c-28.8,0-52.2,23.4-52.2,52.1c0,28.8,23.4,52.1,51.6,52.2"/>
			<path marker-end="none" marker-start="none" d="M43.8,530.2l-0.4,0.9l64.1,36c0.1-0.3,0.2-0.7,0.3-1l-60.4-33.9l67.3,17.8l0,0.3
				c0.2-0.4,0.4-0.8,0.7-1.1l0,0L43.8,530.2z"/>
			<path marker-end="none" marker-start="none" d="M78.5,479.5l-0.7,0.7l44.1,58.9l0.2,0.1c0.2-0.3,0.5-0.6,0.7-0.9l-0.2,0
				l-41.6-55.6l54.2,43.4c0.3-0.2,0.5-0.4,0.8-0.6L78.5,479.5z"/>
			<path marker-end="none" marker-start="none" d="M129.5,444.8l-1,0.4l18,73.4c0.3-0.2,0.6-0.4,1-0.5L130.5,449l33.4,62.3
				c0.3-0.1,0.7-0.2,1-0.3L129.5,444.8z"/>
			<path marker-end="none" marker-start="none" d="M189.4,435.2l-11.5,73.1c0.4,0,0.8-0.1,1.2-0.1l10.8-68.4l6.6,68.4
				c0.4,0,0.8,0.1,1.2,0.1l-7-73.1L189.4,435.2z"/>
			<path marker-end="none" marker-start="none" d="M249.1,447.4l-36.6,64.1c0.4,0.1,0.7,0.2,1.1,0.4l34.2-60l-18.2,67
				c0.3,0.2,0.7,0.4,1,0.6l19.5-71.7L249.1,447.4z"/>
			<path marker-end="none" marker-start="none" d="M299.4,481.5l-57.8,45.7c0.3,0.3,0.6,0.5,0.9,0.8l54-42.7l-42,55.4
				c0.2,0.3,0.5,0.6,0.7,1l45-59.2L299.4,481.5z"/>
			<path marker-end="none" marker-start="none" d="M333.3,537.1l-69.8,18.1c0.2,0.4,0.3,0.7,0.5,1.1l64.6-16.7l-59.7,30.7
				c0.1,0.4,0.2,0.8,0.3,1.1l64.5-33.2L333.3,537.1z"/>
			<path marker-end="none" marker-start="none" d="M271,581.5l62.8,10.2h-62.3c0,0.4,0,0.8,0,1.1h69.4l0.1-1.1l-70.1-11.4
				C270.9,580.7,270.9,581.1,271,581.5z"/>
			<path marker-end="none" marker-start="none" d="M104.8,579.4l-83.6,12.1l0,1.1l1.6,0.2l0.1,0l81.3,1c0-0.4,0-0.6,0-1l-76.1-1.2
				l76.5-11.1C104.7,580.2,104.8,579.8,104.8,579.4z"/>
			<path marker-end="none" marker-start="none" d="M33.9,561l0.5,0.8c10.6,0.4,11.8,1.1,17.8,5.8c5.1,4,10.4,6.1,16.9,5.8
				c4.5-0.2,10.8,1.1,16.2,4c5.5,3,13.4,5.2,19.3,3c0.1-0.4,0.1-0.9,0.2-1.3c-5.5,2.4-13.3,0.4-18.9-2.7c-5.6-3-12.1-4.3-16.8-4.1
				c-6.2,0.2-11.2-1.7-16.1-5.6c-6-4.7-7.6-5.6-17.5-6c1.9-2.5,6.2-2.7,10.9-1.8c5.1,0.9,10.2,2.9,12.2,3.7
				c4.8,1.7,8.8,2.7,13.9,1.4c6.4-1.7,12.4,1.5,17.5,3.8c3,1.3,8.1,0.5,12,0c2.1-0.2,3.8-0.3,5-0.1c0.1,0,0.2,0,0.2,0.1
				c0.1-0.4,0.2-0.7,0.3-1.1c-0.1,0-0.2-0.1-0.3-0.1c-1.4-0.3-3.3-0.1-5.3,0.1c-4.2,0.5-8.8,1.2-11.4,0.1
				c-4.9-2.2-11.4-5.7-18.3-3.8c-4.7,1.3-8.5,0.3-13.2-1.3c-2-0.7-7.2-2.8-12.4-3.7C41.5,556.9,36,557,33.9,561z"/>
			<path marker-end="none" marker-start="none" d="M57.6,500.4l0.1,1c9.6,4.8,10.4,5.9,14,12.8c3,5.8,7,9.9,13.1,12.3
				c4.2,1.7,9.5,5.5,13.3,10.4c3.2,4.2,9.7,10.7,16.7,13.3c0.2-0.3,0.4-0.7,0.6-1c-6.6-2.3-13-8.6-16.4-13c-3.9-5.1-9.3-9-13.7-10.8
				c-5.8-2.3-9.6-6.2-12.5-11.8c-3.6-6.9-4.6-8.3-13.6-12.8c6-3.2,16.8,7.7,20.5,11.3c3.6,3.4,6.8,7.3,11.9,8.5
				c5.3,1.2,14.1,6.4,21.6,11.7c3.5,2.5,6.6,4.8,9,6.8c0.2-0.3,0.5-0.6,0.7-0.9c-2.5-2.1-5.8-4.6-9.1-6.9
				c-7.5-5.3-16.5-10.6-22-11.9c-4.7-1.1-7.6-4.6-11.3-8.2C77.9,508.9,64.5,494.8,57.6,500.4z"/>
			<path marker-end="none" marker-start="none" d="M102.4,460.5l-0.3,0.9c6.8,8.1,7.2,9.5,7.8,17.1c0.5,6.5,2.6,11.8,7.2,16.4
				c3.2,3.2,6.5,8.7,8,14.7c1.5,6,5.1,13.2,10.7,16.2c0.3-0.3,0.7-0.5,1-0.8c-5.4-2.5-9.1-9.5-10.6-15.7c-1.6-6.1-5-11.8-8.3-15.2
				c-4.4-4.4-6.3-9.4-6.8-15.7c-0.6-7.7-1-9.4-7.4-17c6.7-0.6,12.3,13.6,14.3,18.4c2,4.7,4,8.3,8.4,11.2c5.6,3.5,7.3,10.1,9.1,15.4
				c1,3.1,5.1,6.3,8.1,8.9c1.5,1.3,2.6,2.3,3.2,3.2c0.3-0.2,0.7-0.4,1-0.6c-0.8-1.1-2.1-2.3-3.4-3.5c-3.2-2.8-6.9-5.7-7.8-8.4
				c-1.7-5.1-3.5-12.2-9.5-16c-4.1-2.6-6-6-7.9-10.6C117.6,476.2,110.9,458.1,102.4,460.5z"/>
			<path marker-end="none" marker-start="none" d="M159.1,434.8l-0.6,0.7c1.9,6.3,2.2,10.9,0,16.1c-1.8,4.5,0.3,9,1.9,12.6
				c2.7,6.2,3.4,13.5,2.7,20.3c-0.5,4.6-1.8,10.5-1.8,16c0,3.8,0.8,7.5,2.9,10.6c0.4-0.1,0.8-0.2,1.2-0.3c-2.2-2.8-2.9-6.4-3-10.2
				c-0.1-5.4,1.2-11,1.8-15.8c0.8-6.9,0.1-14.4-2.8-20.9c-1.7-3.8-3.5-7.8-1.9-11.7c2.2-5.3,2-10,0.3-15.9c2.9,1.4,5.5,8.4,5.4,16.2
				c-0.1,5.9,2.5,11.7,5.2,16.8c3.5,6.5,2.1,12.6,1.8,18.7c-0.2,5,3.1,9.6,4.1,14.2c0.4,2.1,1.4,4.3,1.9,6.3c0.4,0,0.8-0.1,1.2-0.1
				c-0.5-2.1-1.6-4.4-2-6.4c-1-4.9-4.2-9.2-4.1-14c0.2-5.8,1.8-12.4-2-19.3c-2.7-5-5.2-10.6-5.1-16.2
				C166.6,444,163.4,435.1,159.1,434.8z"/>
			<path marker-end="none" marker-start="none" d="M221.5,447.2c-2.8,4.6-8.5,8.9-8.7,14.6c-0.2,6.9-1,15.7-7.3,21
				c-2.9,2.4-11.3,14.3-8.4,25.5c0.4,0,0.8,0.1,1.2,0.1c-3-10.6,5.1-22.4,8-24.7c6.7-5.6,7.5-15,7.7-21.8c0.2-5.2,5.6-9.3,8.6-14.1
				c1.2-1.9,3.1-3.6,4.4-5.9c-0.3,5.8-1.9,10.6-4.8,16.7c-2.8,5.8-1.8,10.3-0.9,14.7c1.4,7-4.8,13.8-7.7,20.5
				c-2.4,5.4-0.3,12.7-1.2,17.5c0.4,0.1,0.7,0.2,1.1,0.3c1.1-5.1-1-12.4,1.2-17.4c2.9-6.7,9.3-13.7,7.8-21.2
				c-0.9-4.4-1.8-8.5,0.8-14c3.5-7.4,5.1-13.1,5-20.6l-1.1-0.1C226.2,442.4,223.5,444,221.5,447.2z"/>
			<path marker-end="none" marker-start="none" d="M265.7,476.4c-3.7,3.5-11.2,5.1-12.9,10.5c-1.9,5.9-4.9,10.7-9.3,14.6
				c-5.2,4.6-12.1,11.2-14.1,17.2c0.3,0.2,0.7,0.4,1,0.6c1.8-5.6,8.3-12,13.9-16.9c4.6-4,7.7-9,9.6-15.2c1.5-4.9,8.5-6.2,12.6-10.1
				c3.6-3.5,7.7-6.7,10.5-11.4c0.1,9.2-6.5,17.7-13.2,23.6c-3.5,3-2.7,7.8-4.5,11c-2.7,4.8-5.6,9.7-9.9,12.8
				c-4.1,3-5.7,7.4-6.6,11.1c-0.3,1.2-0.5,2.4-0.7,3.4c0.3,0.3,0.7,0.6,1,0.9c0.3-1.3,0.5-2.7,0.8-4c0.9-3.6,2.4-7.6,6.2-10.4
				c4.5-3.3,7.5-8.5,10.2-13.2c2.2-3.8,1-7.9,4.2-10.7c7.3-6.3,14.7-15.9,13.5-26.5l-1.1-0.2C274.2,469,269.9,472.3,265.7,476.4z"/>
			<path marker-end="none" marker-start="none" d="M297.6,518.5c-6.9,1.6-11.5,6-16.5,10.4c-4.5,4-13.2,4.2-19.4,8.1
				c-2,1.2-4.7,2.4-6.8,4.1c0.2,0.3,0.5,0.6,0.7,0.9c1.9-1.5,4.5-2.7,6.8-4c5.6-3.5,14.9-4.1,19.6-8.2c5.1-4.5,9.5-8.6,16-10.2
				c7.8-1.8,14.9-5.7,22-11.3c-1.6,5.6-7,11.9-12.9,14.5c-10.3,4.6-12.9,6.3-14.6,10c-1.8,3.9-5.9,6.3-10.3,8.7
				c-1.1,0.6-2.3,1.2-3.4,1.8c-1.5,0.8-3.2,1.6-4.7,2.5c-3.9,2.4-6.9,7.3-10.2,9.7c0.2,0.4,0.3,0.7,0.5,1.1
				c3.7-2.5,6.7-7.6,10.3-9.8c1.5-0.9,3.1-1.6,4.7-2.5c1.1-0.6,2.3-1.2,3.4-1.8c4.3-2.3,8.8-5,10.8-9.2c1.6-3.3,3.7-4.9,14.1-9.5
				c6.7-3,12.9-10.6,13.9-17l-0.9-0.5C313,512.5,305.6,516.6,297.6,518.5z"/>
			<path marker-end="none" marker-start="none" d="M307.5,566.5c-5.3,2.5-12.2,3.9-17.8,2.7c-6.4-1.4-14.5-0.5-20.6,1.4
				c0,0-0.1,0-0.1,0c0.1,0.4,0.2,0.7,0.3,1.1c0.1,0,0.1,0,0.2-0.1c6-1.8,13.9-2.7,20-1.3c5.9,1.3,13.1-0.2,18.5-2.8
				c6.4-3,12.1-2.2,17.9,0.8c4,2,8.1,1.5,12.9,0.4c-3.7,3.3-10.8,4.9-17,4.4c-5.8-0.4-9.5,3.2-13.5,4.6c-7.8,2.9-19.1,4.6-28.8,4.5
				l6.2,1c8.2-0.5,16.7-2.1,23-4.4c4.2-1.5,7.6-5,13-4.6c7.1,0.5,15.7-1.6,19.2-6.2l-0.6-0.9c-5.7,1.3-9.9,2.1-14,0
				C320.4,564.2,314.4,563.3,307.5,566.5z"/>
			<path marker-end="none" marker-start="none" d="M236.6,594.1l1,0c0-0.3,0-0.5,0-0.8h-1C236.6,593.5,236.6,593.8,236.6,594.1z"/>
			<path marker-end="none" marker-start="none" d="M213.2,549.2l-0.5,0.8c13.8,8.9,23.2,21.8,23.9,43.2h1
				C236.9,571.5,227.3,558.3,213.2,549.2z"/>
			<path marker-end="none" marker-start="none" d="M245.8,593.6l1,0c0-0.1,0-0.2,0-0.3h-1C245.8,593.4,245.8,593.5,245.8,593.6z"/>
			<path marker-end="none" marker-start="none" d="M206.4,535.4l-0.4,0.9c22.1,9.3,38.5,24.7,39.8,57h1
				C245.5,560.5,228.8,544.8,206.4,535.4z"/>
			<path marker-end="none" marker-start="none" d="M253.9,593.6l1,0c0-0.1,0-0.2,0-0.3h-1C253.9,593.4,253.9,593.5,253.9,593.6z"/>
			<path marker-end="none" marker-start="none" d="M188.9,524.2l-0.1,1c34.6,3,63.3,26.5,65.1,68h1
				C253.1,551.2,224,527.2,188.9,524.2z"/>
			<path marker-end="none" marker-start="none" d="M261.2,593.3l0.5,0c0,0,0,0,0,0H261.2z"/>
			<path marker-end="none" marker-start="none" d="M173.3,519.1l0.2,1c43-8.9,88.2,23.9,87.2,73.2l0.5,0h0.5
				C262.8,543.4,216.9,510.1,173.3,519.1z"/>
			<path marker-end="none" marker-start="none" d="M265.8,593.3l0.5,0c0,0,0,0,0,0H265.8z"/>
			<path marker-end="none" marker-start="none" d="M160.2,517.5l0.3,0.9c54.9-19.7,107.4,21.8,104.7,74.8l0.5,0h0.5
				C269,539.6,215.8,497.6,160.2,517.5z"/>
			<path marker-end="none" marker-start="none" d="M69.7,568.1l-0.2,1c5.1,0.9,10.6,0.2,14.8,2.6c4.9,2.8,9.9,4.6,15.4,3l-0.3-1
				c-5,1.4-9.8-0.1-14.6-2.9C80.4,568.3,74.7,569,69.7,568.1z"/>
			<path marker-end="none" marker-start="none" d="M89.6,523.7l-0.5,0.9c4.5,2.6,9.9,3.8,13,7.5c3.6,4.3,7.8,7.7,13.4,8.1l0.1-1
				c-5.2-0.4-9.1-3.5-12.7-7.7C99.5,527.5,93.9,526.3,89.6,523.7z"/>
			<path marker-end="none" marker-start="none" d="M122.2,491.1l-0.9,0.5c2.6,4.9,6.7,9.6,7.8,14.4c1.3,5.6,4.9,10.2,9.7,13l0.5-0.9
				c-4.5-2.7-8-7.1-9.2-12.4C128.9,500.7,124.8,495.9,122.2,491.1z"/>
			<path marker-end="none" marker-start="none" d="M167.7,473.3l-1,0.1c0.5,5.5,2.4,11.4,1.5,16.3c-1,5.6,0.5,11.3,3.8,15.8l0.8-0.6
				c-3.1-4.3-4.6-9.7-3.6-15C170,484.8,168.1,478.8,167.7,473.3z"/>
			<path marker-end="none" marker-start="none" d="M208.9,490.8c-4.5,3.8-4.2,10.7-3.1,16.1l1-0.2c-1.1-5.3-1.3-11.7,2.7-15.1
				c4.2-3.6,4.8-10.3,5.5-15.9l-1-0.1C213.2,481.6,212.7,487.6,208.9,490.8z"/>
			<path marker-end="none" marker-start="none" d="M247.2,505.6c-4.8,3.1-7.6,8.7-8.9,13.6l1,0.3c1.2-4.8,3.9-10.1,8.5-13
				c4.5-2.9,8.1-7.4,11.1-12.5l-0.9-0.5C255,498.5,251.5,502.8,247.2,505.6z"/>
			<path marker-end="none" marker-start="none" d="M276.5,537.1c-2.1,0.5-11.5,6.1-13.4,9.1l0.8,0.6c1.8-2.7,11-8.2,12.8-8.6
				c8.2-2,11.7-6.8,15.1-9.4l-0.6-0.8C287.7,530.7,284.4,535.2,276.5,537.1z"/>
			<path marker-end="none" marker-start="none" d="M293,574.9c-0.7,0.2-2.1,0.3-3.9,0.4c-1.8,0.1-3.9,0.2-5.9,0.3
				c-2.1,0.1-4.1,0.2-5.8,0.3c-1.7,0.1-3,0.2-3.7,0.3l0.2,1c0.6-0.1,1.9-0.2,3.6-0.3c1.7-0.1,3.7-0.2,5.8-0.3c2.1-0.1,4.2-0.2,6-0.3
				c1.8-0.1,3.3-0.3,4.1-0.5c8.5-2,12.5-2.2,18.3-1.2l0.2-1C305.7,572.7,301.6,572.9,293,574.9z"/>
			<path marker-end="none" marker-start="none" d="M221.1,243.8l-0.3,0.9c12.9,11.6,21.7,29.1,26.9,51.9l1,0
				c-5.1-22.5-13.7-39.9-26.3-51.7h55.4v51.9l1,0v-52.4l-0.5-0.5H221.1z M252.5,332.1l0.5,0.5h25.2l0.5-0.5v-12.5l-1,0v12h-24.2
				c-0.3-4.1-0.6-8.2-1.1-12.1l-1,0C251.9,323.5,252.3,327.7,252.5,332.1z"/>
			<path marker-end="none" marker-start="none" d="M81.3,295.6l1,0c-0.1-2.4,0.1-4.6,2.8-6.9c-0.3-0.2-0.5-0.4-0.8-0.7
				C81.5,290.6,81.3,293.2,81.3,295.6z M89,295l-2.5,0.6l2.4,0C89,295.5,89,295.2,89,295z"/>
			<path marker-end="none" marker-start="none" d="M77.8,298.9l-0.1,13.3c0.4-0.3,0.8-0.5,1.2-0.8l0.1-12.5c0-1.6,1-2.7,2-2.7l7.9,0
				c0-0.4,0.1-0.8,0.1-1.1l-8,0C79.1,295.1,77.8,296.9,77.8,298.9z M124.7,296.4l33.7,0.2c0-0.4,0-0.8,0-1.1l-33.8-0.2
				C124.6,295.7,124.7,296,124.7,296.4z M174.6,296.7l172.3,0.9c1,0,2,1.1,2,2.7l-0.1,16.4c0,1.6-1,2.7-2,2.7l-175.4-0.9
				c-0.1,0.4-0.2,0.8-0.4,1.1l175.8,0.9c1.9,0,3.2-1.8,3.2-3.8l0.1-16.4c0-2-1.3-3.8-3.2-3.8l-172.4-0.9
				C174.6,295.9,174.6,296.3,174.6,296.7z M78.7,318.1c0.5,0.6,1.3,1,2.1,1l22.2,0.1c-0.1-0.4-0.2-0.8-0.3-1.1L80.9,318
				c-0.4,0-0.7-0.1-1.1-0.4C79.5,317.8,79.1,317.9,78.7,318.1z M112.2,319.3l28,0.1c-0.7-0.4-1.3-0.8-2-1.2l-25.8-0.1
				C112.4,318.5,112.3,318.9,112.2,319.3z M152.8,319.5l0.9,0c0.2-0.4,0.3-0.8,0.5-1.1l-4.2,0C151,318.7,151.9,319.1,152.8,319.5z"
				/>
			<path marker-end="none" marker-start="none" d="M112.7,314.9c-2.7,11.5-3.6,23-1.7,34.5c0.3,0,0.7-0.1,1-0.1
				c-2-11.6-1-23.1,1.8-34.7l0-0.1C113.4,314.6,113,314.7,112.7,314.9z M103.7,349.4c0.3,0,0.7,0,1,0.1c1.4-11.5,1.6-23.1-2.2-34.2
				c-0.4-0.1-0.8-0.2-1.2-0.3C105.2,326.1,105.1,337.7,103.7,349.4z"/>
			<path marker-end="none" marker-start="none" d="M124.3,302.1c0.2-0.1,0.3-0.3,0.5-0.4c8.5,7.9,17.9,14.4,28.6,18.5
				c0.1-0.3,0.3-0.6,0.4-0.9c-10.8-4-20.1-10.6-28.7-18.6l-0.6,0C124.5,301.2,124.4,301.7,124.3,302.1z M118.7,311.4l0.2,0.3
				c11.5,2,21.5,7.8,30.9,14.7c0.2-0.3,0.4-0.6,0.6-0.8c-9.3-6.9-19.3-12.7-30.8-14.8c0-0.1,0.1-0.3,0.1-0.4
				C119.4,310.7,119,311,118.7,311.4z"/>
			<path marker-end="none" marker-start="none" d="M118.9,284.5L118.9,284.5c0.3,0.3,0.5,0.6,0.8,0.8c11.3-3.1,21.8-7.6,31-14.7
				c-0.2-0.3-0.4-0.6-0.5-0.9C141,276.9,130.4,281.5,118.9,284.5z M124.5,294.6C124.5,294.5,124.5,294.5,124.5,294.6
				c0,0.3,0,0.7,0.1,1.1l0.3,0c7.9-8.8,18.2-14.2,29.2-18.6c-0.1-0.3-0.3-0.6-0.4-0.9C142.8,280.4,132.5,285.8,124.5,294.6z"/>
			<path marker-end="none" marker-start="none" d="M104.7,246.3c1.1,11.4-0.6,22.6-3.9,33.8l0.2,0.6c0.1,0,0.2,0.1,0.3,0.1
				c0.5-0.2,1-0.3,1.5-0.4c-0.3-0.1-0.6-0.3-0.9-0.4c3.3-11.1,5-22.3,3.8-33.7C105.3,246.2,105,246.2,104.7,246.3z M112.2,280.5
				c-0.1,0-0.3,0.1-0.4,0.1c0.5,0.1,0.9,0.3,1.3,0.4l0.2-0.3c-3.3-11.2-2.6-22.7-0.5-34.2c-0.3,0-0.7-0.1-1-0.1
				C109.8,257.8,109,269.3,112.2,280.5z"/>
			<path marker-end="none" marker-start="none" d="M64.8,267.9c9.2,7.3,19.1,13.5,30.8,16c-0.2,0.9-0.5,1.8,0,0
				c0.2-0.2,0.5-0.4,0.9-0.7l-0.1-0.2c-11.6-2.4-21.6-8.6-30.9-15.9C65.2,267.3,65,267.6,64.8,267.9z M60.9,274.1
				c10.8,4.3,20.1,11.1,28.4,19.3c0.1-0.4,0.2-0.7,0.3-1.1c-8.3-8.1-17.6-14.8-28.3-19.1C61.2,273.5,61.1,273.8,60.9,274.1z"/>
			<path marker-end="none" marker-start="none" d="M60.4,320.5c0.1,0.3,0.3,0.6,0.5,0.9c10.7-4.4,20.9-9.9,28.7-18.6
				c-0.1-0.4-0.2-0.8-0.3-1.2C81.4,310.5,71.2,316,60.4,320.5z M64.1,326.9c0.2,0.3,0.4,0.6,0.6,0.8c9.1-7.5,19.7-12.3,31.2-15.6
				c-0.3-0.2-0.6-0.5-0.9-0.8C83.6,314.7,73.1,319.5,64.1,326.9z"/>
			<path marker-end="none" marker-start="none" d="M88.3,297.9c0,10.2,8.3,18.5,18.5,18.5c10.2,0,18.5-8.3,18.5-18.5
				c0-10.2-8.3-18.5-18.5-18.5C96.6,279.3,88.3,287.6,88.3,297.9z M124.2,297.9c0,9.6-7.8,17.4-17.4,17.4c-9.6,0-17.4-7.8-17.4-17.4
				c0-9.6,7.8-17.4,17.4-17.4C116.4,280.5,124.2,288.3,124.2,297.9z"/>
			<path marker-end="none" marker-start="none" d="M97,297.9c0,5.4,4.4,9.8,9.8,9.8c5.4,0,9.8-4.4,9.8-9.8c0-5.4-4.4-9.8-9.8-9.8
				C101.4,288.1,97,292.5,97,297.9z M115.6,297.9c0,4.9-3.9,8.8-8.8,8.8c-4.9,0-8.8-3.9-8.8-8.8c0-4.9,3.9-8.8,8.8-8.8
				C111.7,289.1,115.6,293,115.6,297.9z"/>
			<path marker-end="none" marker-start="none" d="M79,342l-8.4,12.7l0.8,0.6l8.4-12.7L79,342z"/>
			<path marker-end="none" marker-start="none" d="M133.2,342.1l-1,0.5l7.6,14.3l1-0.5L133.2,342.1z"/>
			<path marker-end="none" marker-start="none" d="M159,299.3v1h15.4v-1H159z"/>
			<path marker-end="none" marker-start="none" d="M145.4,242.1l-8.9,12.7l0.8,0.6l8.9-12.7L145.4,242.1z"/>
			<path marker-end="none" marker-start="none" d="M74,238.9l-0.9,0.6l8.4,14l0.9-0.6L74,238.9z"/>
			<path marker-end="none" marker-start="none" d="M39.5,299.3v1h15.4v-1H39.5z"/>
			<path marker-end="none" marker-start="none" d="M110.9,347.1l0.3,1c10.9-3.6,21.9-7.8,33.4-26.2l-0.8-0.5
				C132.4,339.5,121.6,343.6,110.9,347.1z"/>
			<path marker-end="none" marker-start="none" d="M112.3,247.3l-0.3,0.9c15,5.2,25.7,13.9,31.8,26.5c0.3-0.2,0.6-0.4,0.9-0.5
				C138.4,261.5,127.5,252.6,112.3,247.3z M145.9,280c1.7,4.7,2.8,9.9,3.3,15.6l1-0.1c-0.5-5.8-1.7-11.1-3.4-16
				C146.5,279.8,146.2,279.9,145.9,280z"/>
			<path marker-end="none" marker-start="none" d="M98.3,229.4C60.6,229.4,30,260,30,297.7c0,37.7,30.7,68.2,68.4,68.2v-0.2v-0.3
				c-36.5-0.1-67.9-30.3-67.9-67.7c0-37.4,30.4-67.8,67.8-67.8l2.8,0.1C103.1,229.7,104.4,229.7,98.3,229.4z"/>
			<path marker-end="none" marker-start="none" d="M38.5,297.9c0,37.7,30.6,68.3,68.3,68.3c37.7,0,68.3-30.6,68.3-68.3
				c0-37.7-30.6-68.3-68.3-68.3C69.1,229.6,38.5,260.2,38.5,297.9z M174.1,297.9c0,37.1-30.1,67.3-67.3,67.3
				c-37.1,0-67.3-30.1-67.3-67.3c0-37.1,30.1-67.3,67.3-67.3C143.9,230.6,174.1,260.7,174.1,297.9z M54.6,297.9
				c0,28.8,23.4,52.2,52.2,52.2c28.8,0,52.2-23.4,52.2-52.2c0-28.8-23.4-52.2-52.2-52.2C78,245.7,54.6,269.1,54.6,297.9z
				 M157.9,297.9c0,28.2-22.9,51.2-51.2,51.2c-28.2,0-51.2-22.9-51.2-51.2c0-28.2,22.9-51.2,51.2-51.2
				C135,246.7,157.9,269.7,157.9,297.9z"/>
			<path marker-end="none" marker-start="none" d="M103.5,590.6c0,0.9,0,1.9,0,2.8l0.5,0.5h167.3l0.5-0.5c0-0.9,0-1.9,0-2.8
				c0-45.9-37.7-83.2-84.2-83.2C141.2,507.4,103.5,544.6,103.5,590.6z M270.9,590.6c0,0.8,0,1.5,0,2.3H104.5c0-0.8,0-1.5,0-2.3
				c0-45.4,37.3-82.2,83.2-82.2C233.6,508.4,270.9,545.2,270.9,590.6z"/>
		</g>
	</g>
</g>
</svg>
